<svg xmlns="http://www.w3.org/2000/svg" viewBox="0 0 200 240"><defs></defs><ellipse cx="100" cy="226" rx="62" ry="10" fill="rgba(0,0,0,0.08)"/><rect x="72" y="196" width="22" height="30" rx="10" fill="#f7dcc3"/><rect x="106" y="196" width="22" height="30" rx="10" fill="#f7dcc3"/><ellipse cx="83" cy="228" rx="15" ry="7" fill="#e0995f"/><ellipse cx="117" cy="228" rx="15" ry="7" fill="#e0995f"/><rect x="60" y="128" width="80" height="76" rx="24" fill="#7ea06f"/><rect x="72" y="112" width="12" height="26" rx="5" fill="#7ea06f"/><rect x="116" y="112" width="12" height="26" rx="5" fill="#f7dcc3"/><rect x="46" y="132" width="20" height="54" rx="10" fill="#f7dcc3"/><rect x="134" y="132" width="20" height="54" rx="10" fill="#f7dcc3"/><circle cx="100" cy="82" r="48" fill="#423d36"/><path d="M96,32 q6,-14 16,-8 q-8,2 -6,10z" fill="#423d36"/><path d="M56,70 q44,-36 88,0 q-10,-24 -44,-24 q-34,0 -44,24z" fill="#423d36"/><circle cx="82" cy="88" r="5.5" fill="#4a4238"/><circle cx="118" cy="88" r="5.5" fill="#4a4238"/><path d="M90,104 q10,9 20,0" stroke="#e8a49b" stroke-width="4" fill="none" stroke-linecap="round"/><ellipse cx="66" cy="98" rx="9" ry="5.5" fill="#f2c9c0"/><ellipse cx="134" cy="98" rx="9" ry="5.5" fill="#f2c9c0"/></svg>