<svg xmlns="http://www.w3.org/2000/svg" viewBox="0 0 200 240"><defs></defs><ellipse cx="100" cy="226" rx="62" ry="10" fill="rgba(0,0,0,0.08)"/><ellipse cx="100" cy="178" rx="88" ry="42" fill="#fffdf8"/><path d="M28,168 q30,-14 60,0 M60,190 q30,-14 60,0 M100,206 q30,-14 60,0" stroke="#b99670" stroke-width="5" fill="none" stroke-linecap="round" opacity="0.55"/><path d="M28,168 q72,-30 144,0 l0,-8 q-72,-30 -144,0 z" fill="#f0e2ce"/><circle cx="100" cy="102" r="46" fill="#f7dcc3"/><path d="M92,58 q10,-12 20,-2 q-6,4 -4,10" stroke="#423d36" stroke-width="4" fill="none" stroke-linecap="round"/><path d="M80,104 q7,-7 14,0 M108,104 q7,-7 14,0" stroke="#4a4238" stroke-width="4" fill="none" stroke-linecap="round"/><circle cx="101" cy="118" r="3" fill="#4a4238"/><path d="M92,126 q9,6 18,0" stroke="#e8a49b" stroke-width="3" fill="none" stroke-linecap="round"/></svg>