<svg xmlns="http://www.w3.org/2000/svg" viewBox="0 0 200 240"><defs></defs><ellipse cx="100" cy="226" rx="62" ry="10" fill="rgba(0,0,0,0.08)"/><rect x="74" y="178" width="20" height="50" rx="9" fill="#4a5570"/><rect x="106" y="178" width="20" height="50" rx="9" fill="#4a5570"/><ellipse cx="84" cy="230" rx="15" ry="6" fill="#4a4238"/><ellipse cx="116" cy="230" rx="15" ry="6" fill="#4a4238"/><rect x="60" y="112" width="80" height="74" rx="20" fill="#6f8dab"/><path d="M100,112 l0,74" stroke="rgba(0,0,0,0.12)" stroke-width="3"/><rect x="84" y="112" width="32" height="50" rx="10" fill="#fffdf8"/><rect x="42" y="120" width="20" height="58" rx="10" fill="#6f8dab"/><rect x="138" y="120" width="20" height="58" rx="10" fill="#6f8dab"/><circle cx="100" cy="72" r="42" fill="#f7dcc3"/><path d="M60,64 q40,-36 80,0 q4,-12 -6,-18 q-26,-18 -54,-6 q-18,8 -20,24z" fill="#423d36"/><circle cx="84" cy="78" r="5" fill="#4a4238"/><circle cx="116" cy="78" r="5" fill="#4a4238"/><path d="M92,92 q8,6 16,0" stroke="#e8a49b" stroke-width="3.5" fill="none" stroke-linecap="round"/><ellipse cx="66" cy="88" rx="8" ry="5" fill="#f2c9c0"/><ellipse cx="134" cy="88" rx="8" ry="5" fill="#f2c9c0"/></svg>