<svg xmlns="http://www.w3.org/2000/svg" viewBox="0 0 800 500"><defs><linearGradient id="wall" x1="0" y1="0" x2="0" y2="1"><stop offset="0%" stop-color="#232a42"/><stop offset="100%" stop-color="#2c3450"/></linearGradient><radialGradient id="glow"><stop offset="0%" stop-color="#ffd9a0" stop-opacity="0.55"/><stop offset="100%" stop-color="#ffd9a0" stop-opacity="0"/></radialGradient></defs><linearGradient id="wall" x1="0" y1="0" x2="0" y2="1"><stop offset="0%" stop-color="#232a42"/><stop offset="100%" stop-color="#2c3450"/></linearGradient><rect width="800" height="360" fill="url(#wall)"/><rect y="360" width="800" height="140" fill="#232a42"/><rect y="352" width="800" height="10" fill="rgba(0,0,0,0.08)"/><rect x="90" y="70" width="180" height="140" rx="4" fill="#1c2340" stroke="#556080" stroke-width="9"/><line x1="180" y1="70" x2="180" y2="210" stroke="#556080" stroke-width="7"/><line x1="90" y1="140" x2="270" y2="140" stroke="#556080" stroke-width="7"/><circle cx="228" cy="114" r="22" fill="#e8ecf5"/><circle cx="220" cy="108" r="19" fill="#1c2340"/><circle cx="130" cy="100" r="2.5" fill="#dfe6f5"/><circle cx="164" cy="124" r="2.5" fill="#dfe6f5"/><circle cx="198" cy="148" r="2.5" fill="#dfe6f5"/><circle cx="232" cy="100" r="2.5" fill="#dfe6f5"/><circle cx="266" cy="124" r="2.5" fill="#dfe6f5"/><circle cx="600" cy="240" r="210" fill="url(#glow)"/><rect x="560" y="264" width="12" height="110" rx="5" fill="#8a6a48"/><path d="M540,264 l52,0 l-16,-34 h-20z" fill="#e0995f"/><circle cx="566" cy="256" r="9" fill="#ffd9a0"/><rect x="380" y="300" width="240" height="86" rx="16" fill="#3a3f5c"/><rect x="396" y="268" width="100" height="52" rx="12" fill="#3a3f5c" opacity="0.85"/><rect x="504" y="268" width="100" height="52" rx="12" fill="#3a3f5c" opacity="0.85"/><radialGradient id="vig"><stop offset="55%" stop-color="#000" stop-opacity="0"/><stop offset="100%" stop-color="#000" stop-opacity="0.34"/></radialGradient><rect width="800" height="500" fill="url(#vig)"/></svg>