<svg xmlns="http://www.w3.org/2000/svg" viewBox="0 0 800 500"><defs><linearGradient id="sky" x1="0" y1="0" x2="0" y2="1"><stop offset="0%" stop-color="#8a9ec6"/><stop offset="70%" stop-color="#c9a88f"/><stop offset="100%" stop-color="#e0a878"/></linearGradient></defs><linearGradient id="sky" x1="0" y1="0" x2="0" y2="1"><stop offset="0%" stop-color="#8a9ec6"/><stop offset="70%" stop-color="#c9a88f"/><stop offset="100%" stop-color="#e0a878"/></linearGradient><rect width="800" height="280" fill="url(#sky)"/><circle cx="150" cy="200" r="40" fill="#f4c98a"/><rect y="280" width="800" height="52" fill="#5a7355"/><rect y="332" width="800" height="168" fill="#a05a42"/><rect x="24" y="346" width="64" height="14" rx="4" fill="#e8d9c0"/><rect x="152" y="346" width="64" height="14" rx="4" fill="#e8d9c0"/><rect x="280" y="346" width="64" height="14" rx="4" fill="#e8d9c0"/><rect x="408" y="346" width="64" height="14" rx="4" fill="#e8d9c0"/><rect x="536" y="346" width="64" height="14" rx="4" fill="#e8d9c0"/><rect x="664" y="346" width="64" height="14" rx="4" fill="#e8d9c0"/><rect x="580" y="220" width="12" height="130" fill="#2a2622"/><rect x="730" y="220" width="12" height="130" fill="#2a2622"/><rect x="580" y="220" width="162" height="12" fill="#2a2622"/><radialGradient id="vig"><stop offset="55%" stop-color="#000" stop-opacity="0"/><stop offset="100%" stop-color="#000" stop-opacity="0.24"/></radialGradient><rect width="800" height="500" fill="url(#vig)"/></svg>